<svg xmlns="http://www.w3.org/2000/svg" viewBox="0 0 636 605" width="636" height="605"><defs></defs><g transform="matrix(1,0,0,1,-193.739730556,-209.455745819)">
<g>
	<path d="M511.99999999999886,209.45574581882437 C687.6111720508467,209.45574581882437 830.2602694436384,345.0606859383223 830.2602694436384,511.99999999999955 C830.2602694436384,678.9393140616768 687.6111720508467,814.5442541811747 511.99999999999886,814.5442541811747 C336.38882794915105,814.5442541811747 193.7397305563593,678.9393140616768 193.7397305563593,511.99999999999955 C193.7397305563593,345.0606859383223 336.38882794915105,209.45574581882437 511.99999999999886,209.45574581882437 Z" transform="matrix(1,0,0,1,0,0)" fill="none" stroke="#ffffff" stroke-width="10"/>
</g>
<g>
	<path d="M511.99999999999994,212.00000000000017 C511.99999999999994,212.00000000000017 771.8076211353305,362 771.8076211353305,362 C771.8076211353305,362 771.8076211353305,661.9999999999997 771.8076211353305,661.9999999999997 C771.8076211353305,661.9999999999997 511.99999999999994,811.9999999999995 511.99999999999994,811.9999999999995 C511.99999999999994,811.9999999999995 252.19237886466942,661.9999999999999 252.19237886466942,661.9999999999999 C252.19237886466942,661.9999999999999 252.19237886466925,362.0000000000002 252.19237886466925,362.0000000000002 C252.19237886466925,362.0000000000002 511.99999999999994,212.00000000000017 511.99999999999994,212.00000000000017 Z" transform="matrix(1,0,0,1,0,0)" fill="#a32ab5" stroke="#41c6e6" stroke-width="8"/>
</g>
<g>
	<path d="M261.99994999999905,511.9999499999997 C261.99994999999905,511.9999499999997 295.49364905388927,386.9999999999998 295.49364905388927,386.9999999999998 C295.49364905388927,386.9999999999998 252.19237886466925,362.0000000000001 252.19237886466925,362.0000000000001 C252.19237886466925,362.0000000000001 295.49364905388927,386.9999999999997 295.49364905388927,386.9999999999997 C295.49364905388927,386.9999999999997 386.9999999999989,295.49364905389007 386.9999999999989,295.49364905389007 C386.9999999999989,295.49364905389007 511.99999999999903,261.9999999999996 511.99999999999903,261.9999999999996 C511.99999999999903,261.9999999999996 511.99999999999994,212.00000000000023 511.99999999999994,212.00000000000023 C511.99999999999994,212.00000000000023 511.999999999999,261.99999999999966 511.999999999999,261.99999999999966 C511.999999999999,261.99999999999966 636.9999999999989,295.4936490538899 636.9999999999989,295.4936490538899 C636.9999999999989,295.4936490538899 728.5063509461087,386.99999999999966 728.5063509461087,386.99999999999966 C728.5063509461087,386.99999999999966 771.8076211353308,362.00000000000006 771.8076211353308,362.00000000000006 C771.8076211353308,362.00000000000006 728.5063509461087,386.9999999999997 728.5063509461087,386.9999999999997 C728.5063509461087,386.9999999999997 761.9999999999991,511.99999999999966 761.9999999999991,511.99999999999966 C761.9999999999991,511.99999999999966 728.5063509461086,636.9999999999995 728.5063509461086,636.9999999999995 C728.5063509461086,636.9999999999995 771.8076211353307,661.9999999999998 771.8076211353307,661.9999999999998 C771.8076211353307,661.9999999999998 728.5063509461087,636.9999999999997 728.5063509461087,636.9999999999997 C728.5063509461087,636.9999999999997 636.9999999999991,728.5063509461093 636.9999999999991,728.5063509461093 C636.9999999999991,728.5063509461093 511.99999999999903,761.9999999999997 511.99999999999903,761.9999999999997 C511.99999999999903,761.9999999999997 512,811.9999999999997 512,811.9999999999997 C512,811.9999999999997 511.99999999999903,761.9999999999995 511.99999999999903,761.9999999999995 C511.99999999999903,761.9999999999995 386.9999999999991,728.5063509461094 386.9999999999991,728.5063509461094 C386.9999999999991,728.5063509461094 295.4936490538894,636.9999999999998 295.4936490538894,636.9999999999998 C295.4936490538894,636.9999999999998 252.19237886466942,661.9999999999998 252.19237886466942,661.9999999999998 C252.19237886466942,661.9999999999998 295.4936490538894,636.9999999999999 295.4936490538894,636.9999999999999 C295.4936490538894,636.9999999999999 261.99994999999905,511.9999499999997 261.99994999999905,511.9999499999997 Z" transform="matrix(1,0,0,1,0,0)" fill="none" stroke="#41c6e6" stroke-width="8"/>
</g>
<g>
	<path d="M511.99999999999915,261.99999999999966 C511.99999999999915,261.99999999999966 728.5063509461088,386.99999999999966 728.5063509461088,386.99999999999966 C728.5063509461088,386.99999999999966 728.5063509461088,636.9999999999997 728.5063509461088,636.9999999999997 C728.5063509461088,636.9999999999997 511.99999999999915,761.9999999999997 511.99999999999915,761.9999999999997 C511.99999999999915,761.9999999999997 295.4936490538895,636.9999999999998 295.4936490538895,636.9999999999998 C295.4936490538895,636.9999999999998 295.4936490538894,386.99999999999983 295.4936490538894,386.99999999999983 C295.4936490538894,386.99999999999983 511.99999999999915,261.99999999999966 511.99999999999915,261.99999999999966 Z" fill="none" stroke="#41c6e6" stroke-width="8"/>
</g>
<g>
	<path d="M761.9999999999991,511.99999999999966 C761.9999999999991,511.99999999999966 636.9999999999992,728.5063509461093 636.9999999999992,728.5063509461093 C636.9999999999992,728.5063509461093 386.9999999999992,728.5063509461094 386.9999999999992,728.5063509461094 C386.9999999999992,728.5063509461094 261.99999999999915,511.9999999999997 261.99999999999915,511.9999999999997 C261.99999999999915,511.9999999999997 386.99999999999903,295.49364905389007 386.99999999999903,295.49364905389007 C386.99999999999903,295.49364905389007 636.999999999999,295.4936490538899 636.999999999999,295.4936490538899 C636.999999999999,295.4936490538899 761.9999999999991,511.99999999999966 761.9999999999991,511.99999999999966 Z" fill="none" stroke="#41c6e6" stroke-width="8"/>
</g>
<g>
	<path d="M358.28499603271223,413.9999999999984 C358.28499603271223,413.9999999999984 499.95687103271393,413.9999999999984 499.95687103271393,413.9999999999984 C499.95687103271393,413.9999999999984 499.95687103271393,446.20312499999886 499.95687103271393,446.20312499999886 C499.95687103271393,446.20312499999886 396.3631210327127,446.20312499999886 396.3631210327127,446.20312499999886 C396.3631210327127,446.20312499999886 396.3631210327127,495.76562499999943 396.3631210327127,495.76562499999943 C396.3631210327127,495.76562499999943 491.8474960327138,495.76562499999943 491.8474960327138,495.76562499999943 C491.8474960327138,495.76562499999943 491.8474960327138,527.4062499999998 491.8474960327138,527.4062499999998 C491.8474960327138,527.4062499999998 396.3631210327127,527.4062499999998 396.3631210327127,527.4062499999998 C396.3631210327127,527.4062499999998 396.3631210327127,577.7968750000005 396.3631210327127,577.7968750000005 C396.3631210327127,577.7968750000005 499.95687103271393,577.7968750000005 499.95687103271393,577.7968750000005 C499.95687103271393,577.7968750000005 499.95687103271393,610.0000000000008 499.95687103271393,610.0000000000008 C499.95687103271393,610.0000000000008 358.28499603271223,610.0000000000008 358.28499603271223,610.0000000000008 C358.28499603271223,610.0000000000008 358.28499603271223,413.9999999999984 358.28499603271223,413.9999999999984 ZM519.5587539672845,579.7656250000005 C519.5587539672845,579.7656250000005 620.0743789672857,446.48437499999886 620.0743789672857,446.48437499999886 C620.0743789672857,446.48437499999886 620.0743789672857,445.92187499999886 620.0743789672857,445.92187499999886 C620.0743789672857,445.92187499999886 522.3556289672845,445.92187499999886 522.3556289672845,445.92187499999886 C522.3556289672845,445.92187499999886 522.3556289672845,413.9999999999984 522.3556289672845,413.9999999999984 C522.3556289672845,413.9999999999984 665.7150039672863,413.9999999999984 665.7150039672863,413.9999999999984 C665.7150039672863,413.9999999999984 665.7150039672863,444.2343749999988 665.7150039672863,444.2343749999988 C665.7150039672863,444.2343749999988 565.199378967285,577.5156250000005 565.199378967285,577.5156250000005 C565.199378967285,577.5156250000005 565.199378967285,578.0781250000005 565.199378967285,578.0781250000005 C565.199378967285,578.0781250000005 665.7150039672863,578.0781250000005 665.7150039672863,578.0781250000005 C665.7150039672863,578.0781250000005 665.7150039672863,610.0000000000008 665.7150039672863,610.0000000000008 C665.7150039672863,610.0000000000008 519.5587539672845,610.0000000000008 519.5587539672845,610.0000000000008 C519.5587539672845,610.0000000000008 519.5587539672845,579.7656250000005 519.5587539672845,579.7656250000005 Z" fill="#ffffff"/>
</g></g></svg>